<svg xmlns="http://www.w3.org/2000/svg" width="11" height="11" viewBox="0 0 11 11">
	<style type="text/css">
		.st0{fill:#e45028;}
	</style>
	<path class="st0" d="M10.75,9.77C10.59,10.15 10.15,10.4 9.8,10.6C9.34,10.85 8.87,11 8.35,11C7.62,11 6.96,10.7 6.3,10.46C5.82,10.28 5.36,10.07 4.93,9.81C3.61,8.99 2,7.39 1.18,6.06C0.92,5.63 0.71,5.17 0.53,4.69C0.29,4.03 0,3.37 0,2.64C0,2.12 0.14,1.65 0.39,1.19C0.59,0.84 0.84,0.4 1.22,0.24C1.48,0.12 2.03,0 2.31,0C2.36,0 2.42,0 2.47,0.02C2.64,0.07 2.81,0.46 2.89,0.61C3.14,1.06 3.38,1.51 3.64,1.95C3.76,2.15 4,2.4 4,2.64C4,3.12 2.58,3.81 2.58,4.24C2.58,4.45 2.78,4.72 2.89,4.91C3.68,6.33 4.66,7.32 6.08,8.1C6.27,8.21 6.54,8.41 6.75,8.41C7.18,8.41 7.87,7 8.35,7C8.59,7 8.84,7.23 9.04,7.35C9.48,7.61 9.93,7.85 10.38,8.1C10.53,8.18 10.92,8.35 10.97,8.52C11,8.57 11,8.63 11,8.68C11,8.96 10.87,9.51 10.75,9.77"/>
</svg>